<svg width="50" height="37" viewBox="0 0 50 37" fill="none" xmlns="http://www.w3.org/2000/svg">
<mask id="mask0_389_159" style="mask-type:luminance" maskUnits="userSpaceOnUse" x="0" y="0" width="50" height="37">
<path d="M46.4286 0.856934H3.57143C1.59898 0.856934 0 2.45592 0 4.42836V32.9998C0 34.9722 1.59898 36.5712 3.57143 36.5712H46.4286C48.401 36.5712 50 34.9722 50 32.9998V4.42836C50 2.45592 48.401 0.856934 46.4286 0.856934Z" fill="white"/>
</mask>
<g mask="url(#mask0_389_159)">
<path d="M46.4286 0.856934H3.57143C1.59898 0.856934 0 2.45592 0 4.42836V32.9998C0 34.9722 1.59898 36.5712 3.57143 36.5712H46.4286C48.401 36.5712 50 34.9722 50 32.9998V4.42836C50 2.45592 48.401 0.856934 46.4286 0.856934Z" fill="white"/>
<mask id="mask1_389_159" style="mask-type:alpha" maskUnits="userSpaceOnUse" x="0" y="0" width="50" height="37">
<path d="M46.4286 0.856934H3.57143C1.59898 0.856934 0 2.45592 0 4.42836V32.9998C0 34.9722 1.59898 36.5712 3.57143 36.5712H46.4286C48.401 36.5712 50 34.9722 50 32.9998V4.42836C50 2.45592 48.401 0.856934 46.4286 0.856934Z" fill="white"/>
</mask>
<g mask="url(#mask1_389_159)">
<path d="M50 0.856934H0V36.5712H50V0.856934Z" fill="#0A17A7"/>
<path fill-rule="evenodd" clip-rule="evenodd" d="M-2.28982 -2.56543L19.0479 11.8271V-1.52416H30.9528V11.8271L52.2904 -2.56543L54.9533 1.38236L38.0829 12.7616H50.0003V24.6662H38.0829L54.9533 36.0455L52.2904 39.9934L30.9528 25.6009V38.952H19.0479V25.6009L-2.28982 39.9934L-4.95264 36.0455L11.9177 24.6662H0.000308688V12.7616H11.9177L-4.95264 1.38236L-2.28982 -2.56543Z" fill="white"/>
<path d="M33.3359 12.1646L55.9525 -2.71436" stroke="#DB1F35" stroke-width="1.19048" stroke-linecap="round"/>
<path d="M35.7373 25.3169L56.0119 38.9826" stroke="#DB1F35" stroke-width="1.19048" stroke-linecap="round"/>
<path d="M14.2957 12.1256L-6.85254 -2.12695" stroke="#DB1F35" stroke-width="1.19048" stroke-linecap="round"/>
<path d="M16.5895 25.1514L-6.85254 40.6971" stroke="#DB1F35" stroke-width="1.19048" stroke-linecap="round"/>
<path fill-rule="evenodd" clip-rule="evenodd" d="M0 22.2855H21.4286V36.5712H28.5714V22.2855H50V15.1426H28.5714V0.856934H21.4286V15.1426H0V22.2855Z" fill="#E6273E"/>
</g>
</g>
</svg>
