<svg width="50" height="37" viewBox="0 0 50 37" fill="none" xmlns="http://www.w3.org/2000/svg">
<mask id="mask0_389_171" style="mask-type:luminance" maskUnits="userSpaceOnUse" x="0" y="0" width="50" height="37">
<path d="M46.4286 0.856934H3.57143C1.59898 0.856934 0 2.45592 0 4.42836V32.9998C0 34.9722 1.59898 36.5712 3.57143 36.5712H46.4286C48.401 36.5712 50 34.9722 50 32.9998V4.42836C50 2.45592 48.401 0.856934 46.4286 0.856934Z" fill="white"/>
</mask>
<g mask="url(#mask0_389_171)">
<path d="M46.4286 0.856934H3.57143C1.59898 0.856934 0 2.45592 0 4.42836V32.9998C0 34.9722 1.59898 36.5712 3.57143 36.5712H46.4286C48.401 36.5712 50 34.9722 50 32.9998V4.42836C50 2.45592 48.401 0.856934 46.4286 0.856934Z" fill="white"/>
<mask id="mask1_389_171" style="mask-type:alpha" maskUnits="userSpaceOnUse" x="0" y="0" width="50" height="37">
<path d="M46.4286 0.856934H3.57143C1.59898 0.856934 0 2.45592 0 4.42836V32.9998C0 34.9722 1.59898 36.5712 3.57143 36.5712H46.4286C48.401 36.5712 50 34.9722 50 32.9998V4.42836C50 2.45592 48.401 0.856934 46.4286 0.856934Z" fill="white"/>
</mask>
<g mask="url(#mask1_389_171)">
<path d="M50 0.856934H0V36.5712H50V0.856934Z" fill="#EA403F"/>
<path fill-rule="evenodd" clip-rule="evenodd" d="M25 22.8929L18.7023 27.3823L21.0258 20.0055L14.8101 15.4034L22.5439 15.3338L25 8L27.456 15.3338L35.1898 15.4034L28.9741 20.0055L31.2976 27.3823L25 22.8929Z" fill="#FFFE4E"/>
</g>
</g>
</svg>
