<svg width="25" height="25" viewBox="0 0 25 25" fill="none" xmlns="http://www.w3.org/2000/svg">
<path d="M24.3319 8.56249V12.3125C24.3319 12.8303 23.9122 13.25 23.3944 13.25H22.7779L22.3829 16.7651C22.3291 17.2441 21.9233 17.5978 21.4524 17.598C21.4174 17.598 21.3822 17.596 21.3465 17.592C20.832 17.5343 20.4618 17.0701 20.5196 16.5558L21.0082 12.2079C21.0614 11.7337 21.4624 11.375 21.9398 11.375H22.4571V9.49999H2.20703V11.375H18.1914C18.7093 11.375 19.1289 11.7949 19.1289 12.3125C19.1289 12.8303 18.7093 13.25 18.1914 13.25H3.79017L4.71595 20.9732C4.82874 21.9149 5.6291 22.625 6.57759 22.625H18.1616C19.117 22.625 19.9181 21.9089 20.0249 20.9593C20.0826 20.4448 20.5465 20.0747 21.0611 20.1324C21.5756 20.1903 21.9458 20.6542 21.8882 21.1688C21.6747 23.0678 20.0727 24.5 18.1616 24.5H6.57759C4.68061 24.5 3.0799 23.0797 2.85413 21.1962L1.9018 13.25H1.26953C0.75171 13.25 0.332031 12.8303 0.332031 12.3125V8.56249C0.332031 8.04467 0.75171 7.62499 1.26953 7.62499H4.59473L9.54866 0.882484C9.85518 0.465369 10.4419 0.375464 10.8591 0.682166C11.2764 0.988685 11.3662 1.57536 11.0596 1.99265L6.92146 7.62499H17.7773L13.6389 1.99265C13.3324 1.57536 13.4221 0.988685 13.8394 0.682166C14.2567 0.375464 14.8433 0.465186 15.15 0.882484L20.1038 7.62499H23.3944C23.9122 7.62499 24.3319 8.04485 24.3319 8.56249ZM11.3945 16.0625V19.8125C11.3945 20.3303 11.8142 20.75 12.3321 20.75C12.8497 20.75 13.2696 20.3303 13.2696 19.8125V16.0625C13.2696 15.5447 12.8497 15.125 12.3321 15.125C11.8142 15.125 11.3945 15.5447 11.3945 16.0625ZM15.1446 16.0625V19.8125C15.1446 20.3303 15.5642 20.75 16.0821 20.75C16.5997 20.75 17.0196 20.3303 17.0196 19.8125V16.0625C17.0196 15.5447 16.5997 15.125 16.0821 15.125C15.5642 15.125 15.1446 15.5447 15.1446 16.0625ZM7.64454 16.0625V19.8125C7.64454 20.3303 8.06422 20.75 8.58205 20.75C9.09969 20.75 9.51955 20.3303 9.51955 19.8125V16.0625C9.51955 15.5447 9.09969 15.125 8.58205 15.125C8.06422 15.125 7.64454 15.5447 7.64454 16.0625Z" fill="black"/>
</svg>
