<svg width="15" height="12" viewBox="0 0 15 12" fill="none" xmlns="http://www.w3.org/2000/svg">
<path d="M14.7383 1.28516H0.261719C0.208883 1.28516 0.158211 1.26417 0.12085 1.22681C0.0834891 1.18945 0.0625 1.13877 0.0625 1.08594L0.0625 0.289062C0.0625 0.236226 0.0834891 0.185554 0.12085 0.148194C0.158211 0.110833 0.208883 0.0898438 0.261719 0.0898438H14.7383C14.7911 0.0898438 14.8418 0.110833 14.8792 0.148194C14.9165 0.185554 14.9375 0.236226 14.9375 0.289062V1.08594C14.9375 1.13877 14.9165 1.18945 14.8792 1.22681C14.8418 1.26417 14.7911 1.28516 14.7383 1.28516ZM14.7383 6.59766H0.261719C0.208883 6.59766 0.158211 6.57667 0.12085 6.53931C0.0834891 6.50195 0.0625 6.45127 0.0625 6.39844L0.0625 5.60156C0.0625 5.54873 0.0834891 5.49805 0.12085 5.46069C0.158211 5.42333 0.208883 5.40234 0.261719 5.40234H14.7383C14.7911 5.40234 14.8418 5.42333 14.8792 5.46069C14.9165 5.49805 14.9375 5.54873 14.9375 5.60156V6.39844C14.9375 6.45127 14.9165 6.50195 14.8792 6.53931C14.8418 6.57667 14.7911 6.59766 14.7383 6.59766ZM14.7383 11.9102H0.261719C0.208883 11.9102 0.158211 11.8892 0.12085 11.8518C0.0834891 11.8144 0.0625 11.7638 0.0625 11.7109L0.0625 10.9141C0.0625 10.8612 0.0834891 10.8106 0.12085 10.7732C0.158211 10.7358 0.208883 10.7148 0.261719 10.7148H14.7383C14.7911 10.7148 14.8418 10.7358 14.8792 10.7732C14.9165 10.8106 14.9375 10.8612 14.9375 10.9141V11.7109C14.9375 11.7638 14.9165 11.8144 14.8792 11.8518C14.8418 11.8892 14.7911 11.9102 14.7383 11.9102Z" fill="white"/>
</svg>
