<svg width="33" height="33" viewBox="0 0 33 33" fill="none" xmlns="http://www.w3.org/2000/svg">
<path d="M25.5749 20.323C24.9198 19.6409 24.1296 19.2761 23.2921 19.2761C22.4614 19.2761 21.6645 19.6341 20.9823 20.3162L18.8481 22.4437C18.6725 22.3491 18.4969 22.2613 18.3281 22.1735C18.0849 22.052 17.8553 21.9371 17.6594 21.8156C15.6603 20.5459 13.8435 18.8912 12.101 16.7502C11.2568 15.6831 10.6895 14.7849 10.2775 13.8731C10.8313 13.3666 11.3446 12.8398 11.8444 12.3332C12.0335 12.1441 12.2226 11.9483 12.4117 11.7591C13.83 10.3408 13.83 8.5038 12.4117 7.0855L10.5679 5.24171C10.3586 5.03234 10.1424 4.81622 9.93983 4.6001C9.5346 4.18136 9.10911 3.74911 8.67011 3.34389C8.01499 2.69552 7.23155 2.35107 6.40758 2.35107C5.58361 2.35107 4.78666 2.69552 4.11128 3.34389C4.10453 3.35064 4.10453 3.35064 4.09777 3.35739L1.80148 5.67395C0.936986 6.53844 0.443958 7.59204 0.335896 8.81448C0.173805 10.7866 0.754633 12.6236 1.20039 13.8258C2.2945 16.7772 3.92893 19.5125 6.36706 22.4437C9.32523 25.9759 12.8845 28.7653 16.9503 30.7306C18.5037 31.4668 20.5771 32.338 22.8937 32.4866C23.0355 32.4934 23.1841 32.5001 23.3191 32.5001C24.8793 32.5001 26.1895 31.9396 27.2161 30.8252C27.2229 30.8117 27.2364 30.8049 27.2431 30.7914C27.5943 30.3659 27.9995 29.9809 28.425 29.569C28.7154 29.2921 29.0126 29.0016 29.303 28.6977C29.9717 28.0021 30.3229 27.1916 30.3229 26.3609C30.3229 25.5234 29.9649 24.7197 29.2828 24.0443L25.5749 20.323ZM27.9928 27.4348C27.986 27.4415 27.986 27.4348 27.9928 27.4348C27.7294 27.7184 27.4592 27.9751 27.1688 28.2587C26.7298 28.6775 26.2841 29.1165 25.8653 29.6095C25.1832 30.3389 24.3795 30.6833 23.3259 30.6833C23.2246 30.6833 23.1165 30.6833 23.0152 30.6766C21.0093 30.5483 19.1453 29.7648 17.7472 29.0962C13.9246 27.2457 10.5679 24.6184 7.77861 21.2888C5.47555 18.513 3.93568 15.9465 2.91586 13.191C2.28775 11.5093 2.05812 10.199 2.15943 8.96306C2.22697 8.17287 2.53089 7.51775 3.09145 6.95718L5.39451 4.65413C5.72544 4.34345 6.07664 4.17461 6.42109 4.17461C6.84658 4.17461 7.19102 4.43125 7.40715 4.64737C7.4139 4.65413 7.42065 4.66088 7.42741 4.66763C7.83939 5.0526 8.23111 5.45108 8.64309 5.87657C8.85246 6.09269 9.06858 6.30881 9.28471 6.53169L11.1285 8.37548C11.8444 9.09139 11.8444 9.75326 11.1285 10.4692C10.9326 10.665 10.7435 10.8609 10.5477 11.05C9.98035 11.6308 9.44005 12.1711 8.85246 12.6979C8.83896 12.7114 8.82545 12.7182 8.81869 12.7317C8.23787 13.3125 8.34593 13.8798 8.4675 14.2648C8.47425 14.2851 8.481 14.3053 8.48776 14.3256C8.96728 15.4873 9.64266 16.5814 10.6692 17.8849L10.676 17.8916C12.54 20.1879 14.5054 21.9777 16.6734 23.3487C16.9503 23.5243 17.234 23.6661 17.5041 23.8012C17.7472 23.9228 17.9769 24.0376 18.1727 24.1592C18.1997 24.1727 18.2268 24.1929 18.2538 24.2064C18.4834 24.3212 18.6995 24.3753 18.9224 24.3753C19.483 24.3753 19.8342 24.0241 19.949 23.9093L22.2588 21.5995C22.4884 21.3698 22.8531 21.0929 23.2786 21.0929C23.6974 21.0929 24.0418 21.3563 24.2512 21.586C24.2579 21.5927 24.2579 21.5927 24.2647 21.5995L27.986 25.3208C28.6817 26.0097 28.6817 26.7189 27.9928 27.4348Z" fill="black"/>
<path d="M17.5786 8.11195C19.3481 8.40911 20.9555 9.24659 22.2388 10.5298C23.522 11.813 24.3527 13.4204 24.6566 15.1899C24.7309 15.6357 25.1159 15.9464 25.5549 15.9464C25.6089 15.9464 25.6562 15.9396 25.7102 15.9329C26.21 15.8518 26.5409 15.3791 26.4599 14.8793C26.0952 12.7383 25.0821 10.7865 23.5355 9.23983C21.9889 7.69321 20.037 6.68014 17.8961 6.31543C17.3963 6.23438 16.9303 6.56532 16.8425 7.05835C16.7547 7.55138 17.0788 8.0309 17.5786 8.11195Z" fill="black"/>
<path d="M32.2479 14.6159C31.6468 11.0904 29.9854 7.88232 27.4325 5.32937C24.8795 2.77643 21.6714 1.11499 18.146 0.5139C17.6529 0.426101 17.1869 0.763792 17.0991 1.25682C17.0181 1.7566 17.349 2.22262 17.8488 2.31042C20.9961 2.84397 23.8664 4.33656 26.1492 6.6126C28.432 8.89539 29.9179 11.7658 30.4514 14.913C30.5257 15.3588 30.9107 15.6695 31.3497 15.6695C31.4037 15.6695 31.451 15.6627 31.505 15.656C31.998 15.5817 32.3357 15.1089 32.2479 14.6159Z" fill="black"/>
</svg>
