<svg width="64" height="64" viewBox="0 0 64 64" fill="none" xmlns="http://www.w3.org/2000/svg">
<path fill-rule="evenodd" clip-rule="evenodd" d="M4 50.2609C4 51.7736 5.07453 53 6.4 53H57.6C58.9254 53 60 51.7736 60 50.2609C60 48.7481 58.9254 47.5217 57.6 47.5217H6.4C5.07453 47.5217 4 48.7481 4 50.2609ZM4 32C4 33.5127 5.07453 34.7391 6.4 34.7391H41.6C42.9254 34.7391 44 33.5127 44 32C44 30.4873 42.9254 29.2609 41.6 29.2609H6.4C5.07453 29.2609 4 30.4873 4 32ZM4 13.7391C4 15.2519 5.07453 16.4783 6.4 16.4783H22.4C23.7255 16.4783 24.8 15.2519 24.8 13.7391C24.8 12.2264 23.7255 11 22.4 11H6.4C5.07453 11 4 12.2264 4 13.7391Z" fill="black"/>
</svg>
