<svg width="44" height="47" viewBox="0 0 44 47" fill="none" xmlns="http://www.w3.org/2000/svg">
<path d="M23.0429 2.36502C21.9627 1.26523 20.1779 1.30766 19.1512 2.45753L2.67749 20.9081C2.24117 21.3966 2 22.0289 2 22.6841V43.0001C2 44.4729 3.19392 45.6668 4.66667 45.6668H12.6667C14.1394 45.6668 15.3333 44.4729 15.3333 43.0001V33.6668C15.3333 32.194 16.5273 31.0001 18 31.0001H26C27.4728 31.0001 28.6667 32.194 28.6667 33.6668V43.0001C28.6667 44.4729 29.8605 45.6668 31.3333 45.6668H39.3333C40.8061 45.6668 42 44.4729 42 43.0001V22.7574C42 22.0585 41.7256 21.3876 41.2357 20.8889L23.0429 2.36502Z" stroke="black" stroke-width="2.66667"/>
</svg>
