<svg width="20" height="20" viewBox="0 0 20 20" fill="none" xmlns="http://www.w3.org/2000/svg">
<path d="M19.353 18.646L15.344 14.637C16.68 13.135 17.5 11.164 17.5 9C17.5 4.313 13.687 0.5 9 0.5C4.313 0.5 0.5 4.313 0.5 9C0.5 13.687 4.313 17.5 9 17.5C11.164 17.5 13.135 16.68 14.637 15.344L18.646 19.353C18.744 19.451 18.872 19.499 19 19.499C19.128 19.499 19.256 19.45 19.354 19.353C19.548 19.158 19.548 18.842 19.353 18.646ZM1.49902 9C1.49902 4.865 4.86302 1.5 8.99902 1.5C13.135 1.5 16.499 4.865 16.499 9C16.499 13.135 13.135 16.5 8.99902 16.5C4.86302 16.5 1.49902 13.135 1.49902 9Z" fill="black"/>
</svg>
